<svg width="13" height="21" viewBox="0 0 13 21" fill="none" xmlns="http://www.w3.org/2000/svg">
<path d="M6.14932 0.00209499C5.06878 0.0338279 4.01424 0.340995 3.08567 0.89448C2.1571 1.44796 1.38527 2.22943 0.843346 3.16479C0.149506 4.37277 -0.127675 5.77547 0.0545463 7.15657C0.236767 8.53767 0.868269 9.82048 1.85167 10.8072L9.49405 18.4496V20.577H12.6599V6.33065C12.6577 5.48478 12.4864 4.64789 12.1561 3.86915C11.8258 3.09042 11.3432 2.38556 10.7367 1.79597C10.1302 1.20639 9.41189 0.743983 8.62411 0.435923C7.83633 0.127864 6.99492 -0.0196349 6.14932 0.00209499ZM6.3646 3.16479C6.62526 3.1669 6.88644 3.20278 7.14815 3.27243C7.8226 3.45049 8.41887 3.84739 8.84343 4.40087C9.26799 4.95434 9.49683 5.63309 9.49405 6.33065V13.973L4.08993 8.56891C3.5948 8.0776 3.27674 7.43584 3.18564 6.74428C3.09454 6.05273 3.23555 5.35049 3.58656 4.74772C3.86621 4.25996 4.27131 3.85593 4.75982 3.57758C5.24832 3.29923 5.80242 3.1567 6.3646 3.16479Z" fill="white"/>
</svg>
