<svg width="16" height="15" viewBox="0 0 16 15" fill="none" xmlns="http://www.w3.org/2000/svg">
<path fill-rule="evenodd" clip-rule="evenodd" d="M0.176824 0.831504C0 1.15812 0 1.58242 0 2.43713V8.54215C0 9.39685 0 9.8242 0.176824 10.1539C0.332845 10.4408 0.581179 10.6746 0.88542 10.8193C1.23322 10.9854 1.68503 10.9854 2.59515 10.9854H4.54542C5.45554 10.9854 5.9106 10.9854 6.25515 10.8193C6.56009 10.6731 6.80808 10.4402 6.96374 10.1539C7.14057 9.82726 7.14057 9.40296 7.14057 8.54215V7.93165H8.44074V12.2052C8.44074 13.0599 8.44074 13.4872 8.61757 13.8169C8.77359 14.1038 9.02192 14.3376 9.32616 14.4823C9.67396 14.6484 10.1258 14.6484 11.0424 14.6484H12.9927C13.9028 14.6484 14.3578 14.6484 14.7089 14.4823C15.0138 14.3362 15.2618 14.1033 15.4175 13.8169C15.5943 13.4903 15.5943 13.066 15.5943 12.2052V6.10014C15.5943 5.24544 15.5943 4.81808 15.4175 4.49452C15.2618 4.20815 15.0138 3.97526 14.7089 3.82907C14.3611 3.66301 13.9093 3.66301 12.9927 3.66301H11.0424C10.1323 3.66301 9.67721 3.66301 9.32616 3.82907C9.02122 3.97526 8.77323 4.20815 8.61757 4.49452C8.44074 4.82114 8.44074 5.24544 8.44074 6.10014V7.32114H7.14057V2.43713C7.14057 1.58242 7.14057 1.15507 6.96374 0.831504C6.80808 0.545133 6.56009 0.312243 6.25515 0.166057C5.90735 0 5.45554 0 4.54542 0H2.59515C1.68503 0 1.22997 0 0.88542 0.166057C0.58048 0.312243 0.332489 0.545133 0.176824 0.831504ZM6.50218 7.54703C6.50218 7.03421 6.50218 6.7778 6.39622 6.58244C6.3027 6.40997 6.1534 6.26977 5.96976 6.18195C5.76108 6.08182 5.48804 6.08182 4.94262 6.08182H2.21225C1.66618 6.08182 1.39314 6.08182 1.18511 6.18195C1.00147 6.26977 0.85217 6.40997 0.758653 6.58244C0.652689 6.77841 0.652688 7.03482 0.652688 7.54703V7.66913C0.652688 8.18195 0.652689 8.43836 0.758653 8.63372C0.852266 8.80589 1.00114 8.9463 1.18511 9.03421C1.39379 9.13434 1.66683 9.13434 2.21225 9.13434H4.94262C5.48869 9.13434 5.76173 9.13434 5.96976 9.03421C6.15308 8.9463 6.3026 8.8065 6.39622 8.63372C6.50218 8.43775 6.50218 8.18134 6.50218 7.66913V7.54703ZM1.95156 3.63982C2.12235 3.63986 2.29147 3.6083 2.44927 3.54697C2.60707 3.48563 2.75046 3.3957 2.87125 3.28232C2.99205 3.16894 3.08788 3.03432 3.15327 2.88616C3.21867 2.738 3.25235 2.5792 3.25239 2.41881C3.25243 2.25843 3.21884 2.0996 3.15352 1.95141C3.0882 1.80322 2.99245 1.66856 2.87171 1.55512C2.75098 1.44169 2.60764 1.35169 2.44987 1.29028C2.2921 1.22887 2.123 1.19724 1.95221 1.1972C1.6073 1.19711 1.27648 1.32571 1.03253 1.55469C0.788574 1.78368 0.651474 2.09429 0.651388 2.4182C0.651302 2.74211 0.788236 3.05279 1.03207 3.28189C1.2759 3.51098 1.60665 3.63973 1.95156 3.63982ZM5.202 3.63982C5.37279 3.63986 5.54191 3.6083 5.69971 3.54697C5.85751 3.48563 6.0009 3.3957 6.12169 3.28232C6.24249 3.16894 6.33832 3.03432 6.40371 2.88616C6.46911 2.738 6.50279 2.5792 6.50283 2.41881C6.50287 2.25843 6.46928 2.0996 6.40396 1.95141C6.33864 1.80322 6.24289 1.66856 6.12215 1.55512C6.00142 1.44169 5.85808 1.35169 5.70031 1.29028C5.54254 1.22887 5.37344 1.19724 5.20266 1.1972C4.85774 1.19711 4.52692 1.32571 4.28297 1.55469C4.03901 1.78368 3.90192 2.09429 3.90183 2.4182C3.90174 2.74211 4.03868 3.05279 4.28251 3.28189C4.52634 3.51098 4.85709 3.63973 5.202 3.63982ZM10.4027 7.30283C11.1178 7.30283 11.7029 6.75643 11.7029 6.08182C11.7029 5.84033 11.6266 5.60426 11.4838 5.40347C11.3409 5.20268 11.1378 5.04618 10.9003 4.95376C10.6627 4.86135 10.4013 4.83717 10.1491 4.88428C9.89685 4.93139 9.66518 5.04768 9.48335 5.21844C9.30151 5.3892 9.17768 5.60677 9.12752 5.84362C9.07735 6.08047 9.1031 6.32597 9.2015 6.54908C9.29991 6.77219 9.46656 6.96289 9.68037 7.09705C9.89418 7.23122 10.1456 7.30283 10.4027 7.30283ZM13.6532 7.30283C14.3682 7.30283 14.9533 6.75643 14.9533 6.08182C14.9533 5.84033 14.8771 5.60426 14.7342 5.40347C14.5913 5.20268 14.3883 5.04618 14.1507 4.95376C13.9131 4.86135 13.6517 4.83717 13.3995 4.88428C13.1473 4.93139 12.9156 5.04768 12.7338 5.21844C12.552 5.3892 12.4281 5.60677 12.378 5.84362C12.3278 6.08047 12.3535 6.32597 12.4519 6.54908C12.5504 6.77219 12.717 6.96289 12.9308 7.09705C13.1446 7.23122 13.396 7.30283 13.6532 7.30283ZM9.10253 11.21C9.10253 10.6972 9.10253 10.4408 9.20915 10.2455C9.30276 10.0733 9.45163 9.93287 9.63561 9.84496C9.84428 9.74484 10.1173 9.74484 10.6627 9.74484H13.3931C13.9392 9.74484 14.2122 9.74484 14.4203 9.84496C14.6036 9.93287 14.7531 10.0727 14.8467 10.2455C14.9533 10.4414 14.9533 10.6978 14.9533 11.21V11.3321C14.9533 11.845 14.9533 12.1014 14.8467 12.2967C14.7532 12.4692 14.6039 12.6094 14.4203 12.6972C14.2116 12.7974 13.9385 12.7974 13.3931 12.7974H10.6627C10.1167 12.7974 9.84363 12.7974 9.63561 12.6972C9.45196 12.6094 9.30267 12.4692 9.20915 12.2967C9.10253 12.1008 9.10253 11.8444 9.10253 11.3321V11.21Z" fill="white"/>
</svg>
