<svg width="19" height="16" viewBox="0 0 19 16" fill="none" xmlns="http://www.w3.org/2000/svg">
<path d="M1.0017 15.5638C0.219017 15.5638 -0.260278 14.7053 0.150455 14.039L8.51248 0.475029C8.9031 -0.1586 9.82433 -0.158601 10.215 0.475028L18.577 14.039C18.9877 14.7053 18.5084 15.5638 17.7257 15.5638H1.0017ZM9.36372 12.9633C9.62524 12.9633 9.84461 12.8801 10.0218 12.7137C10.1991 12.5473 10.2874 12.3415 10.2867 12.0965C10.2861 11.8515 10.1975 11.6458 10.0209 11.4793C9.84431 11.3129 9.62524 11.2297 9.36372 11.2297C9.10219 11.2297 8.88313 11.3129 8.70652 11.4793C8.52992 11.6458 8.44131 11.8515 8.44069 12.0965C8.44008 12.3415 8.52869 12.5476 8.70652 12.7146C8.88436 12.8816 9.10342 12.9645 9.36372 12.9633ZM8.44069 9.43985C8.44069 9.94963 8.85394 10.3629 9.36372 10.3629C9.87349 10.3629 10.2867 9.94963 10.2867 9.43986V6.95181C10.2867 6.44204 9.87349 6.02879 9.36372 6.02879C8.85394 6.02879 8.44069 6.44204 8.44069 6.95181V9.43985Z" fill="white"/>
</svg>
