<svg width="20" height="16" viewBox="0 0 20 16" fill="none" xmlns="http://www.w3.org/2000/svg">
<path d="M16.9356 5.04825L15.8003 6.70754C16.3478 7.76866 16.6158 8.94519 16.5804 10.1317C16.545 11.3182 16.2071 12.4777 15.5972 13.5062H2.8041C2.01137 12.1698 1.6829 10.6209 1.86736 9.08891C2.05182 7.55693 2.7394 6.12349 3.82817 5.00109C4.91694 3.8787 6.34894 3.12709 7.91187 2.85771C9.4748 2.58832 11.0855 2.8155 12.5051 3.50555L14.2127 2.40235C12.4741 1.31907 10.412 0.83365 8.35598 1.02373C6.30001 1.21382 4.36903 2.06842 2.87193 3.45085C1.37483 4.83328 0.398107 6.66365 0.0979911 8.64919C-0.202125 10.6347 0.191709 12.6607 1.2165 14.4031C1.37757 14.6742 1.60886 14.8996 1.88738 15.057C2.16589 15.2143 2.48194 15.2981 2.8041 15.3H15.588C15.9133 15.3012 16.2331 15.2189 16.5152 15.0614C16.7972 14.9039 17.0314 14.6768 17.194 14.4031C18.0445 12.9715 18.4713 11.3394 18.4273 9.68705C18.3833 8.03465 17.8703 6.42619 16.9448 5.03928L16.9356 5.04825Z" fill="#F0F0F0"/>
<path d="M11.6562 7.6148C11.8276 7.78159 12.0312 7.9139 12.2553 8.00417C12.4794 8.09444 12.7196 8.14091 12.9622 8.14091C13.2048 8.14091 13.4451 8.09444 13.6692 8.00417C13.8933 7.9139 14.0969 7.78159 14.2683 7.6148L19.4926 0L11.6562 5.07654C11.4845 5.24313 11.3484 5.44097 11.2555 5.65874C11.1626 5.87651 11.1147 6.10993 11.1147 6.34567C11.1147 6.58141 11.1626 6.81483 11.2555 7.0326C11.3484 7.25037 11.4845 7.44821 11.6562 7.6148Z" fill="#F0F0F0"/>
</svg>
